<svg width="97" height="18" viewBox="0 0 97 18" fill="none" xmlns="http://www.w3.org/2000/svg">
<path d="M2.528 8.384V9.312C2.528 10.784 3.728 12.032 5.264 12.032C6.848 12.032 8.112 10.784 8.112 8.976C8.112 7.12 6.88 5.888 5.248 5.888C3.648 5.888 2.512 6.912 2.528 8.384ZM2.368 3.52L2.496 4.864C3.072 4.096 4.048 3.44 5.664 3.44C8.528 3.44 10.656 5.648 10.656 8.96C10.656 12.272 8.512 14.48 5.744 14.48C4.144 14.48 3.152 13.792 2.528 12.976V17.92H0V3.52H2.368Z" fill="#F9F4EB"/>
<path d="M10.6847 14.4L10.6687 0H13.1967V14.4H10.6847Z" fill="#F9F4EB"/>
<path d="M19.7691 10.928V10.624C19.7211 10.368 19.3851 8.944 17.7371 8.944C16.5371 8.944 15.7531 9.712 15.7531 10.656C15.7531 11.808 16.5691 12.496 17.7531 12.496C19.6091 12.496 19.7691 10.928 19.7691 10.928ZM19.7691 14.4V13.44C19.2251 14.016 18.3771 14.48 17.0971 14.48C14.7131 14.48 13.2091 13.008 13.2091 10.864C13.2091 8.608 14.8571 7.04 17.0651 7.04C18.5051 7.04 19.3531 7.648 19.7691 8.096C19.7211 6.576 18.9691 5.872 17.4331 5.872C16.3771 5.872 15.2891 6.288 14.3931 7.024L13.5931 4.864C14.8091 3.904 16.2651 3.44 17.6411 3.44C20.7291 3.44 22.2971 5.008 22.2971 8.176V14.4H19.7691Z" fill="#F9F4EB"/>
<path d="M32.6956 11.872C31.8156 13.504 30.1356 14.48 27.9276 14.48C24.6476 14.48 22.4716 12.272 22.4716 8.96C22.4716 5.648 24.6476 3.44 27.9276 3.44C29.9116 3.44 31.4956 4.24 32.4396 5.616L30.3436 7.12C29.8316 6.368 28.9516 5.92 27.9276 5.92C26.2156 5.92 25.0156 7.136 25.0156 8.944C25.0156 10.784 26.1996 12.016 27.9276 12.016C29.0316 12.016 29.8796 11.568 30.4236 10.688L32.6956 11.872Z" fill="#F9F4EB"/>
<path d="M35.2663 7.952H40.3542C40.0502 6.656 39.1383 5.904 37.8423 5.904C36.5943 5.904 35.5863 6.704 35.2663 7.952ZM43.0583 9.28V9.984H35.3143C35.7143 11.216 36.8342 12.016 38.1782 12.016C39.3142 12.016 40.2902 11.536 40.9302 10.832L42.6102 12.544C41.5702 13.84 40.0022 14.48 38.0822 14.48C34.8662 14.48 32.5622 12.224 32.5622 8.96C32.5622 5.808 34.8502 3.44 37.9222 3.44C41.0742 3.44 43.0583 5.696 43.0583 9.28Z" fill="#F9F4EB"/>
<path d="M50.8507 14.4V9.072C50.8507 6.96 49.9387 5.824 48.4027 5.824C46.9467 5.824 45.7467 7.328 45.7467 9.056V14.4H43.2347V0H45.7467V5.632C46.2908 4.592 47.3148 3.44 49.2028 3.44C51.6828 3.44 53.3628 5.2 53.3628 7.712V14.4H50.8507Z" fill="#F9F4EB"/>
<path d="M53.3841 8.96C53.3841 5.648 55.5601 3.44 58.8241 3.44C62.0881 3.44 64.2801 5.648 64.2801 8.96C64.2801 12.272 62.0881 14.48 58.8241 14.48C55.5601 14.48 53.3841 12.272 53.3841 8.96ZM55.9441 8.944C55.9441 10.784 57.1121 12 58.8241 12C60.5361 12 61.7201 10.784 61.7201 8.944C61.7201 7.136 60.5361 5.92 58.8241 5.92C57.1121 5.92 55.9441 7.136 55.9441 8.944Z" fill="#F9F4EB"/>
<path d="M64.291 14.4L64.275 0H66.803V14.4H64.291Z" fill="#F9F4EB"/>
<path d="M74.9434 9.536V8.608C74.9434 7.136 73.7434 5.888 72.2074 5.888C70.6234 5.888 69.3594 7.136 69.3594 8.944C69.3594 10.8 70.5914 12.032 72.2234 12.032C73.8234 12.032 74.9594 11.008 74.9434 9.536ZM75.1034 14.4L74.9754 13.056C74.3994 13.824 73.4234 14.48 71.8074 14.48C68.9434 14.48 66.8154 12.272 66.8154 8.96C66.8154 5.648 68.9594 3.44 71.7274 3.44C73.3274 3.44 74.3194 4.128 74.9434 4.944V0H77.4714V14.4H75.1034Z" fill="#F9F4EB"/>
<path d="M80.3444 7.952H85.4324C85.1284 6.656 84.2164 5.904 82.9204 5.904C81.6724 5.904 80.6644 6.704 80.3444 7.952ZM88.1364 9.28V9.984H80.3924C80.7924 11.216 81.9124 12.016 83.2564 12.016C84.3924 12.016 85.3684 11.536 86.0084 10.832L87.6884 12.544C86.6484 13.84 85.0804 14.48 83.1604 14.48C79.9444 14.48 77.6404 12.224 77.6404 8.96C77.6404 5.808 79.9284 3.44 83.0004 3.44C86.1524 3.44 88.1364 5.696 88.1364 9.28Z" fill="#F9F4EB"/>
<path d="M88.1406 14.4V3.52H90.5086L90.6526 5.392C91.2766 4.112 92.4126 3.44 93.8686 3.44C94.2526 3.44 94.6046 3.472 94.9246 3.52L94.7326 6C94.4286 5.92 94.0606 5.888 93.6126 5.888C91.7566 5.888 90.6686 7.216 90.6686 9.328V14.4H88.1406Z" fill="#F9F4EB"/>
<path d="M94.0519 13.216C94.0519 12.464 94.5639 11.952 95.2999 11.952C96.0359 11.952 96.5319 12.464 96.5319 13.216C96.5319 13.984 96.0359 14.48 95.2999 14.48C94.5639 14.48 94.0519 13.984 94.0519 13.216Z" fill="#F9F4EB"/>
</svg>
