<svg width="25" height="25" viewBox="0 0 25 25" fill="none" xmlns="http://www.w3.org/2000/svg">
<path d="M12.5957 23.8749C12.4976 24.1612 12.0922 24.1612 11.9941 23.8749L10.4434 19.3476C10.1863 18.5974 9.32945 18.243 8.61719 18.5917L4.31934 20.6962C4.04752 20.8293 3.76047 20.5423 3.89355 20.2704L5.99805 15.9726C6.34679 15.2603 5.99242 14.4035 5.24219 14.1464L0.714844 12.5956C0.428534 12.4975 0.428539 12.0922 0.714844 11.9941L5.24219 10.4433C5.99242 10.1862 6.34679 9.32939 5.99805 8.61713L3.89355 4.31927C3.76047 4.04746 4.04752 3.76041 4.31934 3.89349L8.61719 5.99799C9.32945 6.34673 10.1863 5.99236 10.4434 5.24213L11.9941 0.714783C12.0922 0.428473 12.4976 0.428478 12.5957 0.714783L14.1465 5.24213C14.4035 5.99236 15.2604 6.34673 15.9727 5.99799L20.2705 3.89349C20.5423 3.76041 20.8294 4.04746 20.6963 4.31927L18.5918 8.61713C18.2431 9.32939 18.5974 10.1862 19.3477 10.4433L23.875 11.9941C24.1613 12.0922 24.1613 12.4975 23.875 12.5956L19.3477 14.1464C18.5974 14.4035 18.2431 15.2603 18.5918 15.9726L20.6963 20.2704C20.8294 20.5423 20.5423 20.8293 20.2705 20.6962L15.9727 18.5917C15.2604 18.243 14.4035 18.5974 14.1465 19.3476L12.5957 23.8749Z" fill="#C87AFF" stroke="black"/>
</svg>
